<svg width="21" height="22" viewBox="0 0 21 22" fill="none" xmlns="http://www.w3.org/2000/svg">
<path fill-rule="evenodd" clip-rule="evenodd" d="M9.99 2C5.15487 2 1.12535 5.4373 0.199893 10H0V12C0 17.52 4.47 22 9.99 22C15.52 22 20 17.52 20 12V10H19.7997C18.8722 5.4373 14.8339 2 9.99 2ZM2 12C2 16.42 5.58 20 10 20C14.42 20 18 16.42 18 12C18 7.58 14.42 4 10 4C5.58 4 2 7.58 2 12Z" fill="#697F8B"/>
<path fill-rule="evenodd" clip-rule="evenodd" d="M10.5 7H9V13L14.25 16.15L15 14.92V12.9219L10.5 10.5V7Z" fill="#697F8B"/>
<path fill-rule="evenodd" clip-rule="evenodd" d="M9.99 0C4.47 0 0 4.48 0 10C0 15.52 4.47 20 9.99 20C15.52 20 20 15.52 20 10C20 4.48 15.52 0 9.99 0V0ZM10 18C5.58 18 2 14.42 2 10C2 5.58 5.58 2 10 2C14.42 2 18 5.58 18 10C18 14.42 14.42 18 10 18V18Z" fill="#8699A4"/>
<path fill-rule="evenodd" clip-rule="evenodd" d="M10.5 5H9V11L14.25 14.15L15 12.92L10.5 10.25V5Z" fill="#8699A4"/>
</svg>
